<svg width="120" height="50" viewBox="0 0 120 50" fill="none" xmlns="http://www.w3.org/2000/svg">
<g clip-path="url(#clip0)">
<path d="M26.6172 8.13867L26.7051 5.88867C26.7051 4.59961 26.4531 3.70898 25.9492 3.2168L26.3008 2.86523C26.7695 3.32227 27.3496 3.55078 28.041 3.55078H51.1211C51.8359 3.55078 52.4219 3.32227 52.8789 2.86523L53.2305 3.2168C52.7852 3.66211 52.5625 4.24805 52.5625 4.97461L52.4746 7.22461C52.4746 8.49023 52.7266 9.375 53.2305 9.87891L52.8789 10.248C52.3516 9.70898 51.4961 9.43945 50.3125 9.43945L46.4277 9.68555C45.1973 9.68555 44.3125 9.41602 43.7734 8.87695L43.4043 9.22852C43.8613 9.67383 44.0898 10.2598 44.0898 10.9863V25.5762C44.0898 26.7949 44.1953 28.6113 44.4062 31.0254C44.6289 33.4395 44.7402 35.0273 44.7402 35.7891C44.7402 37.125 44.5 37.793 44.0195 37.793C43.5391 37.793 43.2988 37.3184 43.2988 36.3691C43.2988 35.4199 43.375 34.1309 43.5273 32.502C43.6914 30.8848 43.7734 29.666 43.7734 28.8457C43.7734 27.5684 43.5215 26.9297 43.0176 26.9297C42.7715 26.9297 42.5781 27.0762 42.4375 27.3691C42.2969 27.6621 42.2266 27.9492 42.2266 28.2305L42.6309 31.9043C42.6309 32.748 42.3906 33.1699 41.9102 33.1699C41.6641 33.1699 41.4824 33.0469 41.3652 32.8008C41.248 32.5547 41.1895 32.2676 41.1895 31.9395C41.1895 31.6113 41.2949 31.0723 41.5059 30.3223C41.7168 29.584 41.8223 28.9805 41.8223 28.5117C41.8223 28.043 41.6172 27.6855 41.207 27.4395C40.8086 27.1934 40.2988 27.0703 39.6777 27.0703C39.0684 27.0703 38.4297 27.1934 37.7617 27.4395C37.1055 27.6855 36.5254 28.0664 36.0215 28.582C35.5176 29.1094 35.2656 29.625 35.2656 30.1289C35.2656 30.6445 35.3418 31.2656 35.4941 31.9922C35.6582 32.7188 35.7402 33.3223 35.7402 33.8027C35.7402 34.2949 35.5234 34.541 35.0898 34.541C34.5977 34.541 34.3516 34.2773 34.3516 33.75C34.3516 33.2344 34.4453 32.5781 34.6328 31.7812C34.8203 30.9844 34.9141 30.3867 34.9141 29.9883V25.418C34.9375 18.9961 34.9492 14.1855 34.9492 10.9863C34.9492 10.248 35.1719 9.66211 35.6172 9.22852L35.2656 8.87695C34.75 9.4043 33.8945 9.66797 32.6992 9.66797L28.9199 9.43945C27.7129 9.43945 26.8398 9.70898 26.3008 10.248L25.9492 9.87891C26.3945 9.43359 26.6172 8.85352 26.6172 8.13867ZM41.7695 35.8242C42.0508 37.1133 42.1914 38.2324 42.1914 39.1816C42.1914 39.5918 42.0449 39.7969 41.752 39.7969C41.459 39.7969 41.3125 39.6094 41.3125 39.2344C41.3125 38.1797 41.4648 37.043 41.7695 35.8242ZM76.416 9.87891L76.6973 5.87109C76.6973 4.67578 76.4219 3.80273 75.8711 3.25195L76.2227 2.88281C76.7031 3.35156 77.2891 3.58594 77.9805 3.58594H84.1855C84.8887 3.58594 85.4746 3.35156 85.9434 2.88281L86.2949 3.25195C85.8379 3.70898 85.6094 4.29492 85.6094 5.00977V25.5762C85.6094 26.2793 85.8379 26.8652 86.2949 27.334L85.9434 27.6855C85.4863 27.2285 84.9004 27 84.1855 27H77.9805C77.2656 27 76.6797 27.2285 76.2227 27.6855L75.8711 27.334C76.3164 26.8887 76.5391 26.3027 76.5391 25.5762L76.5039 19.6699C76.5039 18.9668 76.7266 18.3867 77.1719 17.9297L76.8203 17.5781C76.375 18.0234 75.7891 18.2461 75.0625 18.2461H67.8555C67.1406 18.2461 66.5547 18.0234 66.0977 17.5781L65.7461 17.9297C65.7695 18.1992 65.7812 19.6172 65.7812 22.1836V30.1113C65.7812 31.1777 65.916 32.6895 66.1855 34.6465C66.4551 36.6035 66.5898 37.9863 66.5898 38.7949C66.5898 39.6035 66.4902 40.1543 66.291 40.4473C66.1035 40.7402 65.875 40.8867 65.6055 40.8867C65.3359 40.8867 65.1016 40.7402 64.9023 40.4473C64.7148 40.166 64.6211 39.873 64.6211 39.5684C64.6211 39.2754 64.6797 38.5898 64.7969 37.5117C65.1484 34.2539 65.3242 31.8047 65.3242 30.1641C65.3242 29.3555 65.0781 28.6523 64.5859 28.0547C63.625 26.8945 62.3066 26.3145 60.6309 26.3145C59.7754 26.3145 59.0547 26.5137 58.4688 26.9121C57.8945 27.3105 57.6074 27.8613 57.6074 28.5645C57.6074 29.2793 57.7188 30.3223 57.9414 31.6934C58.1758 33.0645 58.293 34.0137 58.293 34.541C58.293 35.6309 57.9531 36.1758 57.2734 36.1758C56.957 36.1758 56.6875 36.0527 56.4648 35.8066C56.2422 35.5723 56.1309 35.1797 56.1309 34.6289C56.1309 34.0898 56.3184 33.1172 56.6934 31.7109C57.0801 30.3047 57.2734 29.209 57.2734 28.4238V5.00977C57.2734 4.27148 57.0508 3.68555 56.6055 3.25195L56.9395 2.88281C57.4199 3.35156 58.0059 3.58594 58.6973 3.58594H65.0078C65.6992 3.58594 66.2793 3.35156 66.748 2.88281L67.1172 3.25195C66.5781 3.79102 66.3086 4.66992 66.3086 5.88867L66.5723 9.93164C66.5723 11.1387 66.2969 12.0176 65.7461 12.5684L66.0977 12.9375C66.5547 12.4805 67.1406 12.252 67.8555 12.252H75.1328C75.8477 12.252 76.4277 12.4805 76.873 12.9375L77.2422 12.5684C76.6914 12.0059 76.416 11.1094 76.416 9.87891Z" fill="white"/>
<path d="M85.584 37.136L85.608 37.712C85.448 37.808 84.72 38.096 83.424 38.576C82.912 41.632 82.16 43.84 81.168 45.2C80.176 46.56 78.96 47.24 77.52 47.24C76.848 47.24 76.312 47.024 75.912 46.592C75.512 46.16 75.312 45.6 75.312 44.912C75.312 43.536 75.944 42.248 77.208 41.048C78.472 39.864 80.16 38.928 82.272 38.24C82.512 37.168 82.944 35.656 83.568 33.704C82.496 35.336 81.52 36.44 80.64 37.016C79.776 37.592 78.992 37.88 78.288 37.88C77.584 37.88 77.048 37.688 76.68 37.304C76.328 36.92 76.152 36.408 76.152 35.768C76.152 34.712 76.592 33.64 77.472 32.552C78.352 31.448 79.456 30.552 80.784 29.864C82.128 29.16 83.424 28.808 84.672 28.808L84.864 29.648C83.088 29.84 81.56 30.464 80.28 31.52C79.016 32.576 78.384 33.592 78.384 34.568C78.384 34.984 78.512 35.328 78.768 35.6C79.024 35.872 79.336 36.008 79.704 36.008C80.248 36.008 81.072 35.432 82.176 34.28C83.28 33.128 84.056 32.144 84.504 31.328L85.392 31.832C84.512 34.184 83.904 36.168 83.568 37.784L85.584 37.136ZM82.128 38.96C80.736 39.6 79.584 40.368 78.672 41.264C77.76 42.16 77.304 42.976 77.304 43.712C77.304 44.096 77.416 44.408 77.64 44.648C77.864 44.888 78.144 45.008 78.48 45.008C79.152 45.008 79.816 44.536 80.472 43.592C81.128 42.648 81.68 41.104 82.128 38.96ZM89.7653 35.696L90.2693 36.104C89.7253 36.952 89.2533 37.568 88.8533 37.952C88.4693 38.32 88.0373 38.504 87.5573 38.504C87.0773 38.504 86.6853 38.312 86.3813 37.928C86.0773 37.544 85.9253 37.064 85.9253 36.488C85.9253 35.368 86.6613 32.96 88.1333 29.264C89.6053 25.552 91.1173 22.288 92.6693 19.472L93.7253 20.048C92.1573 23.088 90.7413 26.112 89.4773 29.12C88.2133 32.112 87.5813 34.264 87.5813 35.576C87.5813 36.328 87.8613 36.704 88.4213 36.704C88.8693 36.704 89.3173 36.368 89.7653 35.696ZM102.833 35.576L103.385 35.984C103.161 36.464 102.745 36.92 102.137 37.352C101.545 37.784 101.001 38 100.505 38C99.5609 38 99.0889 37.504 99.0889 36.512C99.0889 36.048 99.2089 35.496 99.4489 34.856L98.5609 35.768C97.6969 36.648 96.9449 37.24 96.3049 37.544C95.6809 37.848 95.0649 38 94.4569 38C93.8489 38 93.3849 37.832 93.0649 37.496C92.7609 37.144 92.6089 36.664 92.6089 36.056C92.6089 34.936 93.0409 33.832 93.9049 32.744C94.7689 31.64 95.8729 30.744 97.2169 30.056C98.5609 29.368 99.9049 29.016 101.249 29L101.297 29.792L100.289 30.008C98.8329 30.328 97.5449 30.968 96.4249 31.928C95.3209 32.888 94.7689 33.848 94.7689 34.808C94.7689 35.752 95.1529 36.224 95.9209 36.224C96.6409 36.224 97.5289 35.72 98.5849 34.712C99.6409 33.704 100.521 32.52 101.225 31.16L102.233 31.76C101.241 33.76 100.745 35.032 100.745 35.576C100.745 35.8 100.817 35.992 100.961 36.152C101.121 36.296 101.273 36.368 101.417 36.368C101.577 36.368 101.681 36.36 101.729 36.344C101.777 36.328 101.825 36.312 101.873 36.296C101.921 36.264 101.977 36.224 102.041 36.176C102.121 36.128 102.185 36.08 102.233 36.032C102.297 35.984 102.393 35.912 102.521 35.816C102.649 35.72 102.753 35.64 102.833 35.576ZM111.635 28.616L111.419 29.552C111.147 29.52 110.795 29.504 110.363 29.504C108.763 29.504 107.963 30.032 107.963 31.088C107.963 31.312 108.283 31.968 108.923 33.056C109.579 34.144 109.907 34.872 109.907 35.24C109.907 36.104 109.611 36.784 109.019 37.28C108.443 37.76 107.667 38 106.691 38C105.347 38 104.267 37.256 103.451 35.768L104.363 35.12C104.587 35.296 104.827 35.512 105.083 35.768C105.339 36.008 105.531 36.176 105.659 36.272C105.963 36.544 106.299 36.68 106.667 36.68C107.035 36.68 107.355 36.552 107.627 36.296C107.899 36.024 108.035 35.696 108.035 35.312C108.035 34.912 107.683 34.176 106.979 33.104C106.291 32.032 105.947 31.28 105.947 30.848C105.947 30.064 106.275 29.464 106.931 29.048C107.603 28.632 108.475 28.424 109.547 28.424C110.635 28.424 111.331 28.488 111.635 28.616ZM119.58 28.616L119.364 29.552C119.092 29.52 118.74 29.504 118.308 29.504C116.708 29.504 115.908 30.032 115.908 31.088C115.908 31.312 116.228 31.968 116.868 33.056C117.524 34.144 117.852 34.872 117.852 35.24C117.852 36.104 117.556 36.784 116.964 37.28C116.388 37.76 115.612 38 114.636 38C113.292 38 112.212 37.256 111.396 35.768L112.308 35.12C112.532 35.296 112.772 35.512 113.028 35.768C113.284 36.008 113.476 36.176 113.604 36.272C113.908 36.544 114.244 36.68 114.612 36.68C114.98 36.68 115.3 36.552 115.572 36.296C115.844 36.024 115.98 35.696 115.98 35.312C115.98 34.912 115.628 34.176 114.924 33.104C114.236 32.032 113.892 31.28 113.892 30.848C113.892 30.064 114.22 29.464 114.876 29.048C115.548 28.632 116.42 28.424 117.492 28.424C118.58 28.424 119.276 28.488 119.58 28.616Z" fill="white"/>
<path d="M22.0529 20.4053L8.01647 15.0172C8.63754 13.7685 9.55011 12.7135 10.6412 11.9828L13.0583 10.3664C13.7114 9.92855 14.233 9.26085 14.532 8.47968L16.628 3.0194C16.7977 2.57722 17.1091 2.2102 17.4937 1.99908C17.8783 1.78796 18.3045 1.75004 18.6787 1.89366L22.9108 3.51821C23.2849 3.66183 23.5763 3.97523 23.7208 4.38945C23.8654 4.80368 23.8512 5.2848 23.6815 5.72699L21.5848 11.1889C21.2857 11.969 21.2275 12.813 21.4202 13.5743L22.1328 16.3939C22.4547 17.6671 22.4269 19.0618 22.0529 20.4053ZM17.6082 32.0897L16.3282 35.4242C15.9887 36.3086 15.3659 37.0426 14.5967 37.4648C13.8276 37.8871 12.9751 37.9629 12.2268 37.6757L3.7626 34.4266C3.01432 34.1393 2.43154 33.5125 2.14247 32.6841C1.8534 31.8556 1.88172 30.8934 2.2212 30.009L3.5012 26.6745L17.6082 32.0897ZM9.5226 19.4212L17.9868 22.6703L16.0668 27.6721L7.6026 24.423L9.5226 19.4212Z" fill="white"/>
</g>
<defs>
<clipPath id="clip0">
<rect width="120" height="50" fill="white"/>
</clipPath>
</defs>
</svg>
