<svg width="120" height="60" viewBox="0 0 120 60" fill="none" xmlns="http://www.w3.org/2000/svg">
<g clip-path="url(#clip0)">
<path d="M26.6172 8.13867L26.7051 5.88867C26.7051 4.59961 26.4531 3.70898 25.9492 3.2168L26.3008 2.86523C26.7695 3.32227 27.3496 3.55078 28.041 3.55078H51.1211C51.8359 3.55078 52.4219 3.32227 52.8789 2.86523L53.2305 3.2168C52.7852 3.66211 52.5625 4.24805 52.5625 4.97461L52.4746 7.22461C52.4746 8.49023 52.7266 9.375 53.2305 9.87891L52.8789 10.248C52.3516 9.70898 51.4961 9.43945 50.3125 9.43945L46.4277 9.68555C45.1973 9.68555 44.3125 9.41602 43.7734 8.87695L43.4043 9.22852C43.8613 9.67383 44.0898 10.2598 44.0898 10.9863V25.5762C44.0898 26.7949 44.1953 28.6113 44.4062 31.0254C44.6289 33.4395 44.7402 35.0273 44.7402 35.7891C44.7402 37.125 44.5 37.793 44.0195 37.793C43.5391 37.793 43.2988 37.3184 43.2988 36.3691C43.2988 35.4199 43.375 34.1309 43.5273 32.502C43.6914 30.8848 43.7734 29.666 43.7734 28.8457C43.7734 27.5684 43.5215 26.9297 43.0176 26.9297C42.7715 26.9297 42.5781 27.0762 42.4375 27.3691C42.2969 27.6621 42.2266 27.9492 42.2266 28.2305L42.6309 31.9043C42.6309 32.748 42.3906 33.1699 41.9102 33.1699C41.6641 33.1699 41.4824 33.0469 41.3652 32.8008C41.248 32.5547 41.1895 32.2676 41.1895 31.9395C41.1895 31.6113 41.2949 31.0723 41.5059 30.3223C41.7168 29.584 41.8223 28.9805 41.8223 28.5117C41.8223 28.043 41.6172 27.6855 41.207 27.4395C40.8086 27.1934 40.2988 27.0703 39.6777 27.0703C39.0684 27.0703 38.4297 27.1934 37.7617 27.4395C37.1055 27.6855 36.5254 28.0664 36.0215 28.582C35.5176 29.1094 35.2656 29.625 35.2656 30.1289C35.2656 30.6445 35.3418 31.2656 35.4941 31.9922C35.6582 32.7188 35.7402 33.3223 35.7402 33.8027C35.7402 34.2949 35.5234 34.541 35.0898 34.541C34.5977 34.541 34.3516 34.2773 34.3516 33.75C34.3516 33.2344 34.4453 32.5781 34.6328 31.7812C34.8203 30.9844 34.9141 30.3867 34.9141 29.9883V25.418C34.9375 18.9961 34.9492 14.1855 34.9492 10.9863C34.9492 10.248 35.1719 9.66211 35.6172 9.22852L35.2656 8.87695C34.75 9.4043 33.8945 9.66797 32.6992 9.66797L28.9199 9.43945C27.7129 9.43945 26.8398 9.70898 26.3008 10.248L25.9492 9.87891C26.3945 9.43359 26.6172 8.85352 26.6172 8.13867ZM41.7695 35.8242C42.0508 37.1133 42.1914 38.2324 42.1914 39.1816C42.1914 39.5918 42.0449 39.7969 41.752 39.7969C41.459 39.7969 41.3125 39.6094 41.3125 39.2344C41.3125 38.1797 41.4648 37.043 41.7695 35.8242ZM76.416 9.87891L76.6973 5.87109C76.6973 4.67578 76.4219 3.80273 75.8711 3.25195L76.2227 2.88281C76.7031 3.35156 77.2891 3.58594 77.9805 3.58594H84.1855C84.8887 3.58594 85.4746 3.35156 85.9434 2.88281L86.2949 3.25195C85.8379 3.70898 85.6094 4.29492 85.6094 5.00977V25.5762C85.6094 26.2793 85.8379 26.8652 86.2949 27.334L85.9434 27.6855C85.4863 27.2285 84.9004 27 84.1855 27H77.9805C77.2656 27 76.6797 27.2285 76.2227 27.6855L75.8711 27.334C76.3164 26.8887 76.5391 26.3027 76.5391 25.5762L76.5039 19.6699C76.5039 18.9668 76.7266 18.3867 77.1719 17.9297L76.8203 17.5781C76.375 18.0234 75.7891 18.2461 75.0625 18.2461H67.8555C67.1406 18.2461 66.5547 18.0234 66.0977 17.5781L65.7461 17.9297C65.7695 18.1992 65.7812 19.6172 65.7812 22.1836V30.1113C65.7812 31.1777 65.916 32.6895 66.1855 34.6465C66.4551 36.6035 66.5898 37.9863 66.5898 38.7949C66.5898 39.6035 66.4902 40.1543 66.291 40.4473C66.1035 40.7402 65.875 40.8867 65.6055 40.8867C65.3359 40.8867 65.1016 40.7402 64.9023 40.4473C64.7148 40.166 64.6211 39.873 64.6211 39.5684C64.6211 39.2754 64.6797 38.5898 64.7969 37.5117C65.1484 34.2539 65.3242 31.8047 65.3242 30.1641C65.3242 29.3555 65.0781 28.6523 64.5859 28.0547C63.625 26.8945 62.3066 26.3145 60.6309 26.3145C59.7754 26.3145 59.0547 26.5137 58.4688 26.9121C57.8945 27.3105 57.6074 27.8613 57.6074 28.5645C57.6074 29.2793 57.7188 30.3223 57.9414 31.6934C58.1758 33.0645 58.293 34.0137 58.293 34.541C58.293 35.6309 57.9531 36.1758 57.2734 36.1758C56.957 36.1758 56.6875 36.0527 56.4648 35.8066C56.2422 35.5723 56.1309 35.1797 56.1309 34.6289C56.1309 34.0898 56.3184 33.1172 56.6934 31.7109C57.0801 30.3047 57.2734 29.209 57.2734 28.4238V5.00977C57.2734 4.27148 57.0508 3.68555 56.6055 3.25195L56.9395 2.88281C57.4199 3.35156 58.0059 3.58594 58.6973 3.58594H65.0078C65.6992 3.58594 66.2793 3.35156 66.748 2.88281L67.1172 3.25195C66.5781 3.79102 66.3086 4.66992 66.3086 5.88867L66.5723 9.93164C66.5723 11.1387 66.2969 12.0176 65.7461 12.5684L66.0977 12.9375C66.5547 12.4805 67.1406 12.252 67.8555 12.252H75.1328C75.8477 12.252 76.4277 12.4805 76.873 12.9375L77.2422 12.5684C76.6914 12.0059 76.416 11.1094 76.416 9.87891Z" fill="white"/>
<path d="M85.584 37.136L85.608 37.712C85.448 37.808 84.72 38.096 83.424 38.576C82.912 41.632 82.16 43.84 81.168 45.2C80.176 46.56 78.96 47.24 77.52 47.24C76.848 47.24 76.312 47.024 75.912 46.592C75.512 46.16 75.312 45.6 75.312 44.912C75.312 43.536 75.944 42.248 77.208 41.048C78.472 39.864 80.16 38.928 82.272 38.24C82.512 37.168 82.944 35.656 83.568 33.704C82.496 35.336 81.52 36.44 80.64 37.016C79.776 37.592 78.992 37.88 78.288 37.88C77.584 37.88 77.048 37.688 76.68 37.304C76.328 36.92 76.152 36.408 76.152 35.768C76.152 34.712 76.592 33.64 77.472 32.552C78.352 31.448 79.456 30.552 80.784 29.864C82.128 29.16 83.424 28.808 84.672 28.808L84.864 29.648C83.088 29.84 81.56 30.464 80.28 31.52C79.016 32.576 78.384 33.592 78.384 34.568C78.384 34.984 78.512 35.328 78.768 35.6C79.024 35.872 79.336 36.008 79.704 36.008C80.248 36.008 81.072 35.432 82.176 34.28C83.28 33.128 84.056 32.144 84.504 31.328L85.392 31.832C84.512 34.184 83.904 36.168 83.568 37.784L85.584 37.136ZM82.128 38.96C80.736 39.6 79.584 40.368 78.672 41.264C77.76 42.16 77.304 42.976 77.304 43.712C77.304 44.096 77.416 44.408 77.64 44.648C77.864 44.888 78.144 45.008 78.48 45.008C79.152 45.008 79.816 44.536 80.472 43.592C81.128 42.648 81.68 41.104 82.128 38.96ZM89.7653 35.696L90.2693 36.104C89.7253 36.952 89.2533 37.568 88.8533 37.952C88.4693 38.32 88.0373 38.504 87.5573 38.504C87.0773 38.504 86.6853 38.312 86.3813 37.928C86.0773 37.544 85.9253 37.064 85.9253 36.488C85.9253 35.368 86.6613 32.96 88.1333 29.264C89.6053 25.552 91.1173 22.288 92.6693 19.472L93.7253 20.048C92.1573 23.088 90.7413 26.112 89.4773 29.12C88.2133 32.112 87.5813 34.264 87.5813 35.576C87.5813 36.328 87.8613 36.704 88.4213 36.704C88.8693 36.704 89.3173 36.368 89.7653 35.696ZM102.833 35.576L103.385 35.984C103.161 36.464 102.745 36.92 102.137 37.352C101.545 37.784 101.001 38 100.505 38C99.5609 38 99.0889 37.504 99.0889 36.512C99.0889 36.048 99.2089 35.496 99.4489 34.856L98.5609 35.768C97.6969 36.648 96.9449 37.24 96.3049 37.544C95.6809 37.848 95.0649 38 94.4569 38C93.8489 38 93.3849 37.832 93.0649 37.496C92.7609 37.144 92.6089 36.664 92.6089 36.056C92.6089 34.936 93.0409 33.832 93.9049 32.744C94.7689 31.64 95.8729 30.744 97.2169 30.056C98.5609 29.368 99.9049 29.016 101.249 29L101.297 29.792L100.289 30.008C98.8329 30.328 97.5449 30.968 96.4249 31.928C95.3209 32.888 94.7689 33.848 94.7689 34.808C94.7689 35.752 95.1529 36.224 95.9209 36.224C96.6409 36.224 97.5289 35.72 98.5849 34.712C99.6409 33.704 100.521 32.52 101.225 31.16L102.233 31.76C101.241 33.76 100.745 35.032 100.745 35.576C100.745 35.8 100.817 35.992 100.961 36.152C101.121 36.296 101.273 36.368 101.417 36.368C101.577 36.368 101.681 36.36 101.729 36.344C101.777 36.328 101.825 36.312 101.873 36.296C101.921 36.264 101.977 36.224 102.041 36.176C102.121 36.128 102.185 36.08 102.233 36.032C102.297 35.984 102.393 35.912 102.521 35.816C102.649 35.72 102.753 35.64 102.833 35.576ZM111.635 28.616L111.419 29.552C111.147 29.52 110.795 29.504 110.363 29.504C108.763 29.504 107.963 30.032 107.963 31.088C107.963 31.312 108.283 31.968 108.923 33.056C109.579 34.144 109.907 34.872 109.907 35.24C109.907 36.104 109.611 36.784 109.019 37.28C108.443 37.76 107.667 38 106.691 38C105.347 38 104.267 37.256 103.451 35.768L104.363 35.12C104.587 35.296 104.827 35.512 105.083 35.768C105.339 36.008 105.531 36.176 105.659 36.272C105.963 36.544 106.299 36.68 106.667 36.68C107.035 36.68 107.355 36.552 107.627 36.296C107.899 36.024 108.035 35.696 108.035 35.312C108.035 34.912 107.683 34.176 106.979 33.104C106.291 32.032 105.947 31.28 105.947 30.848C105.947 30.064 106.275 29.464 106.931 29.048C107.603 28.632 108.475 28.424 109.547 28.424C110.635 28.424 111.331 28.488 111.635 28.616ZM119.58 28.616L119.364 29.552C119.092 29.52 118.74 29.504 118.308 29.504C116.708 29.504 115.908 30.032 115.908 31.088C115.908 31.312 116.228 31.968 116.868 33.056C117.524 34.144 117.852 34.872 117.852 35.24C117.852 36.104 117.556 36.784 116.964 37.28C116.388 37.76 115.612 38 114.636 38C113.292 38 112.212 37.256 111.396 35.768L112.308 35.12C112.532 35.296 112.772 35.512 113.028 35.768C113.284 36.008 113.476 36.176 113.604 36.272C113.908 36.544 114.244 36.68 114.612 36.68C114.98 36.68 115.3 36.552 115.572 36.296C115.844 36.024 115.98 35.696 115.98 35.312C115.98 34.912 115.628 34.176 114.924 33.104C114.236 32.032 113.892 31.28 113.892 30.848C113.892 30.064 114.22 29.464 114.876 29.048C115.548 28.632 116.42 28.424 117.492 28.424C118.58 28.424 119.276 28.488 119.58 28.616Z" fill="white"/>
<path d="M23.152 21.0505L9.11557 14.5848C9.6417 13.3831 10.4646 12.3976 11.4823 11.7501L13.737 10.3182C14.3461 9.93022 14.8122 9.30218 15.054 8.54358L16.7501 3.24154C16.8874 2.81217 17.1678 2.46885 17.5295 2.2871C17.8911 2.10536 18.3045 2.10008 18.6787 2.27242L22.9108 4.22188C23.2849 4.39422 23.5892 4.73007 23.7566 5.15555C23.924 5.58102 23.9409 6.06127 23.8036 6.49064L22.107 11.7943C21.865 12.5518 21.8621 13.3917 22.0987 14.1681L22.9739 17.0435C23.3691 18.3419 23.4311 19.735 23.152 21.0505ZM19.5622 32.3993L18.5264 35.6372C18.2517 36.496 17.691 37.1826 16.9676 37.5461C16.2443 37.9096 15.4175 37.9201 14.6692 37.5755L6.20505 33.6765C5.45677 33.3319 4.84826 32.6601 4.51338 31.8092C4.17851 30.9582 4.1447 29.9978 4.4194 29.139L5.45516 25.9011L19.5622 32.3993ZM10.866 19.1061L19.3302 23.005L17.7765 27.8618L9.31232 23.9629L10.866 19.1061Z" fill="white"/>
<path d="M2.422 43.042C2.58067 42.9393 2.81867 42.832 3.136 42.72C3.46267 42.608 3.836 42.552 4.256 42.552C4.77867 42.552 5.24067 42.6453 5.642 42.832C6.05267 43.0187 6.398 43.28 6.678 43.616C6.958 43.952 7.168 44.3533 7.308 44.82C7.45733 45.2867 7.532 45.8 7.532 46.36C7.532 46.948 7.44333 47.48 7.266 47.956C7.098 48.4227 6.85533 48.8193 6.538 49.146C6.22067 49.4727 5.838 49.7247 5.39 49.902C4.942 50.0793 4.438 50.168 3.878 50.168C3.27133 50.168 2.73467 50.126 2.268 50.042C1.80133 49.958 1.41867 49.874 1.12 49.79V39.36L2.422 39.136V43.042ZM2.422 48.866C2.55267 48.9033 2.73467 48.9407 2.968 48.978C3.21067 49.006 3.50933 49.02 3.864 49.02C4.564 49.02 5.124 48.7913 5.544 48.334C5.964 47.8673 6.174 47.2093 6.174 46.36C6.174 45.9867 6.13667 45.6367 6.062 45.31C5.98733 44.9833 5.866 44.7033 5.698 44.47C5.53 44.2273 5.31067 44.0407 5.04 43.91C4.77867 43.77 4.46133 43.7 4.088 43.7C3.73333 43.7 3.40667 43.7607 3.108 43.882C2.80933 44.0033 2.58067 44.1293 2.422 44.26V48.866ZM15.7901 46.36C15.7901 46.9387 15.7061 47.4613 15.5381 47.928C15.3701 48.3947 15.1321 48.796 14.8241 49.132C14.5255 49.468 14.1661 49.7293 13.7461 49.916C13.3261 50.0933 12.8688 50.182 12.3741 50.182C11.8795 50.182 11.4221 50.0933 11.0021 49.916C10.5821 49.7293 10.2181 49.468 9.91014 49.132C9.61147 48.796 9.37814 48.3947 9.21014 47.928C9.04214 47.4613 8.95814 46.9387 8.95814 46.36C8.95814 45.7907 9.04214 45.2727 9.21014 44.806C9.37814 44.33 9.61147 43.924 9.91014 43.588C10.2181 43.252 10.5821 42.9953 11.0021 42.818C11.4221 42.6313 11.8795 42.538 12.3741 42.538C12.8688 42.538 13.3261 42.6313 13.7461 42.818C14.1661 42.9953 14.5255 43.252 14.8241 43.588C15.1321 43.924 15.3701 44.33 15.5381 44.806C15.7061 45.2727 15.7901 45.7907 15.7901 46.36ZM14.4321 46.36C14.4321 45.5387 14.2455 44.89 13.8721 44.414C13.5081 43.9287 13.0088 43.686 12.3741 43.686C11.7395 43.686 11.2355 43.9287 10.8621 44.414C10.4981 44.89 10.3161 45.5387 10.3161 46.36C10.3161 47.1813 10.4981 47.8347 10.8621 48.32C11.2355 48.796 11.7395 49.034 12.3741 49.034C13.0088 49.034 13.5081 48.796 13.8721 48.32C14.2455 47.8347 14.4321 47.1813 14.4321 46.36ZM18.84 42.72H21.598V43.812H18.84V47.172C18.84 47.536 18.868 47.8393 18.924 48.082C18.98 48.3153 19.064 48.502 19.176 48.642C19.288 48.7727 19.428 48.866 19.596 48.922C19.764 48.978 19.96 49.006 20.184 49.006C20.576 49.006 20.8886 48.964 21.122 48.88C21.3646 48.7867 21.5326 48.7213 21.626 48.684L21.878 49.762C21.7473 49.8273 21.5186 49.9067 21.192 50C20.8653 50.1027 20.492 50.154 20.072 50.154C19.5773 50.154 19.1666 50.0933 18.84 49.972C18.5226 49.8413 18.266 49.65 18.07 49.398C17.874 49.146 17.734 48.838 17.65 48.474C17.5753 48.1007 17.538 47.6713 17.538 47.186V40.69L18.84 40.466V42.72ZM24.4728 42.72H27.2308V43.812H24.4728V47.172C24.4728 47.536 24.5008 47.8393 24.5568 48.082C24.6128 48.3153 24.6968 48.502 24.8088 48.642C24.9208 48.7727 25.0608 48.866 25.2288 48.922C25.3968 48.978 25.5928 49.006 25.8168 49.006C26.2088 49.006 26.5214 48.964 26.7548 48.88C26.9974 48.7867 27.1654 48.7213 27.2588 48.684L27.5108 49.762C27.3801 49.8273 27.1514 49.9067 26.8248 50C26.4981 50.1027 26.1248 50.154 25.7048 50.154C25.2101 50.154 24.7994 50.0933 24.4728 49.972C24.1554 49.8413 23.8988 49.65 23.7028 49.398C23.5068 49.146 23.3668 48.838 23.2828 48.474C23.2081 48.1007 23.1708 47.6713 23.1708 47.186V40.69L24.4728 40.466V42.72ZM31.0716 50.14C30.2689 50.1213 29.6996 49.9487 29.3636 49.622C29.0276 49.2953 28.8596 48.7867 28.8596 48.096V39.36L30.1616 39.136V47.886C30.1616 48.1007 30.1802 48.278 30.2176 48.418C30.2549 48.558 30.3156 48.67 30.3996 48.754C30.4836 48.838 30.5956 48.9033 30.7356 48.95C30.8756 48.9873 31.0482 49.02 31.2536 49.048L31.0716 50.14ZM32.3097 46.374C32.3097 45.73 32.403 45.17 32.5897 44.694C32.7764 44.2087 33.0237 43.8073 33.3317 43.49C33.6397 43.1727 33.9944 42.9347 34.3957 42.776C34.797 42.6173 35.2077 42.538 35.6277 42.538C36.6077 42.538 37.359 42.846 37.8817 43.462C38.4044 44.0687 38.6657 44.9973 38.6657 46.248C38.6657 46.304 38.6657 46.3787 38.6657 46.472C38.6657 46.556 38.661 46.6353 38.6517 46.71H33.6677C33.7237 47.466 33.943 48.04 34.3257 48.432C34.7084 48.824 35.3057 49.02 36.1177 49.02C36.575 49.02 36.9577 48.9827 37.2657 48.908C37.583 48.824 37.821 48.7447 37.9797 48.67L38.1617 49.762C38.003 49.846 37.723 49.9347 37.3217 50.028C36.9297 50.1213 36.4817 50.168 35.9777 50.168C35.343 50.168 34.7924 50.0747 34.3257 49.888C33.8684 49.692 33.4904 49.426 33.1917 49.09C32.893 48.754 32.669 48.3573 32.5197 47.9C32.3797 47.4333 32.3097 46.9247 32.3097 46.374ZM37.3077 45.66C37.317 45.072 37.1677 44.5913 36.8597 44.218C36.561 43.8353 36.1457 43.644 35.6137 43.644C35.315 43.644 35.049 43.7047 34.8157 43.826C34.5917 43.938 34.4004 44.0873 34.2417 44.274C34.083 44.4607 33.957 44.6753 33.8637 44.918C33.7797 45.1607 33.7237 45.408 33.6957 45.66H37.3077ZM43.3003 47.424C43.3003 47.06 43.3563 46.738 43.4683 46.458C43.5803 46.1687 43.7296 45.912 43.9163 45.688C44.1123 45.4547 44.3363 45.254 44.5883 45.086C44.8403 44.9087 45.1016 44.7547 45.3723 44.624C44.6816 43.9333 44.3363 43.2193 44.3363 42.482C44.3363 42.1087 44.3969 41.7727 44.5183 41.474C44.6489 41.1753 44.8216 40.9233 45.0363 40.718C45.2603 40.5127 45.5216 40.354 45.8203 40.242C46.1283 40.13 46.4643 40.074 46.8283 40.074C47.2016 40.074 47.5329 40.13 47.8223 40.242C48.1209 40.354 48.3683 40.5033 48.5643 40.69C48.7696 40.8767 48.9236 41.1007 49.0263 41.362C49.1289 41.6233 49.1803 41.8987 49.1803 42.188C49.1803 42.5147 49.1243 42.8087 49.0123 43.07C48.9096 43.3313 48.7649 43.5693 48.5783 43.784C48.4009 43.9987 48.1956 44.1947 47.9623 44.372C47.7289 44.5493 47.4816 44.708 47.2203 44.848L49.4883 47.158C49.8056 46.57 50.0109 45.9167 50.1043 45.198L51.1823 45.338C51.1449 45.7207 51.0469 46.1407 50.8882 46.598C50.7389 47.046 50.5243 47.494 50.2443 47.942C50.5709 48.2967 50.8696 48.6467 51.1403 48.992C51.4203 49.3373 51.6489 49.6733 51.8263 50H50.4543C50.3423 49.8133 50.2023 49.622 50.0343 49.426C49.8756 49.23 49.7076 49.034 49.5303 48.838C49.1476 49.2207 48.7043 49.5333 48.2003 49.776C47.6963 50.0093 47.1176 50.126 46.4643 50.126C45.8576 50.126 45.3536 50.042 44.9523 49.874C44.5509 49.6967 44.2243 49.4773 43.9723 49.216C43.7296 48.9453 43.5569 48.6513 43.4543 48.334C43.3516 48.0167 43.3003 47.7133 43.3003 47.424ZM44.6023 47.396C44.6023 47.564 44.6349 47.746 44.7003 47.942C44.7656 48.138 44.8729 48.32 45.0223 48.488C45.1716 48.6467 45.3629 48.782 45.5963 48.894C45.8389 48.9967 46.1376 49.048 46.4923 49.048C46.9496 49.048 47.3696 48.964 47.7523 48.796C48.1443 48.628 48.4896 48.39 48.7883 48.082L46.0583 45.324C45.8903 45.408 45.7176 45.506 45.5403 45.618C45.3723 45.73 45.2183 45.87 45.0783 46.038C44.9383 46.1967 44.8216 46.388 44.7283 46.612C44.6443 46.836 44.6023 47.0973 44.6023 47.396ZM48.0043 42.23C48.0043 41.9127 47.8969 41.6467 47.6823 41.432C47.4769 41.208 47.1923 41.096 46.8283 41.096C46.4176 41.096 46.1003 41.222 45.8763 41.474C45.6616 41.7167 45.5543 42.02 45.5543 42.384C45.5543 42.9907 45.8716 43.5833 46.5063 44.162C46.7116 44.0593 46.9029 43.9473 47.0803 43.826C47.2669 43.7047 47.4256 43.5647 47.5563 43.406C47.6963 43.2473 47.8036 43.0747 47.8783 42.888C47.9623 42.692 48.0043 42.4727 48.0043 42.23ZM55.1507 52.618C55.0387 52.618 54.894 52.604 54.7167 52.576C54.5394 52.548 54.39 52.5107 54.2687 52.464L54.4367 51.4C54.53 51.428 54.6374 51.4513 54.7587 51.47C54.88 51.4887 54.992 51.498 55.0947 51.498C55.5427 51.498 55.86 51.358 56.0467 51.078C56.2427 50.8073 56.3407 50.406 56.3407 49.874V42.72H57.6427V49.86C57.6427 50.7933 57.428 51.484 56.9987 51.932C56.5787 52.3893 55.9627 52.618 55.1507 52.618ZM56.9847 41.404C56.7514 41.404 56.5507 41.3293 56.3827 41.18C56.224 41.0213 56.1447 40.8113 56.1447 40.55C56.1447 40.2887 56.224 40.0833 56.3827 39.934C56.5507 39.7753 56.7514 39.696 56.9847 39.696C57.218 39.696 57.414 39.7753 57.5727 39.934C57.7407 40.0833 57.8247 40.2887 57.8247 40.55C57.8247 40.8113 57.7407 41.0213 57.5727 41.18C57.414 41.3293 57.218 41.404 56.9847 41.404ZM62.3457 49.062C62.6537 49.062 62.9244 49.0573 63.1577 49.048C63.4004 49.0293 63.6011 49.0013 63.7597 48.964V46.794C63.6664 46.7473 63.5124 46.71 63.2977 46.682C63.0924 46.6447 62.8404 46.626 62.5417 46.626C62.3457 46.626 62.1357 46.64 61.9117 46.668C61.6971 46.696 61.4964 46.7567 61.3097 46.85C61.1324 46.934 60.9831 47.0553 60.8617 47.214C60.7404 47.3633 60.6797 47.564 60.6797 47.816C60.6797 48.2827 60.8291 48.6093 61.1277 48.796C61.4264 48.9733 61.8324 49.062 62.3457 49.062ZM62.2337 42.538C62.7564 42.538 63.1951 42.608 63.5497 42.748C63.9137 42.8787 64.2031 43.07 64.4177 43.322C64.6417 43.5647 64.8004 43.8587 64.8937 44.204C64.9871 44.54 65.0337 44.9133 65.0337 45.324V49.874C64.9217 49.8927 64.7631 49.9207 64.5577 49.958C64.3617 49.986 64.1377 50.014 63.8857 50.042C63.6337 50.07 63.3584 50.0933 63.0597 50.112C62.7704 50.14 62.4811 50.154 62.1917 50.154C61.7811 50.154 61.4031 50.112 61.0577 50.028C60.7124 49.944 60.4137 49.8133 60.1617 49.636C59.9097 49.4493 59.7137 49.2067 59.5737 48.908C59.4337 48.6093 59.3637 48.25 59.3637 47.83C59.3637 47.4287 59.4431 47.0833 59.6017 46.794C59.7697 46.5047 59.9937 46.2713 60.2737 46.094C60.5537 45.9167 60.8804 45.786 61.2537 45.702C61.6271 45.618 62.0191 45.576 62.4297 45.576C62.5604 45.576 62.6957 45.5853 62.8357 45.604C62.9757 45.6133 63.1064 45.632 63.2277 45.66C63.3584 45.6787 63.4704 45.6973 63.5637 45.716C63.6571 45.7347 63.7224 45.7487 63.7597 45.758V45.394C63.7597 45.1793 63.7364 44.9693 63.6897 44.764C63.6431 44.5493 63.5591 44.3627 63.4377 44.204C63.3164 44.036 63.1484 43.9053 62.9337 43.812C62.7284 43.7093 62.4577 43.658 62.1217 43.658C61.6924 43.658 61.3144 43.6907 60.9877 43.756C60.6704 43.812 60.4324 43.8727 60.2737 43.938L60.1197 42.86C60.2877 42.7853 60.5677 42.7153 60.9597 42.65C61.3517 42.5753 61.7764 42.538 62.2337 42.538ZM69.8842 42.566C69.9962 42.566 70.1222 42.5753 70.2622 42.594C70.4115 42.6033 70.5562 42.622 70.6962 42.65C70.8362 42.6687 70.9622 42.692 71.0742 42.72C71.1955 42.7387 71.2842 42.7573 71.3402 42.776L71.1162 43.91C71.0135 43.8727 70.8408 43.8307 70.5982 43.784C70.3648 43.728 70.0615 43.7 69.6882 43.7C69.4455 43.7 69.2028 43.728 68.9602 43.784C68.7268 43.8307 68.5728 43.8633 68.4982 43.882V50H67.1962V43.028C67.5042 42.916 67.8868 42.8133 68.3442 42.72C68.8015 42.6173 69.3148 42.566 69.8842 42.566Z" fill="#FEFBFB"/>
</g>
<defs>
<clipPath id="clip0">
<rect width="120" height="60" fill="white"/>
</clipPath>
</defs>
</svg>
